<svg fill="none" height="36" viewBox="0 0 145 36" width="145" xmlns="http://www.w3.org/2000/svg"><g fill="#000"><path d="m27.2188 0v35.3h-7.6053v-2.4c-1.7011 1.9-4.1028 3.1-7.5051 3.1-6.6046 0-12.1084-5.8-12.1084-13.3s5.5038-13.3 12.1084-13.3c3.4023 0 5.904 1.2 7.5051 3.1v-12.5zm-7.6053 22.7c0-3.8-2.5017-6.2-6.0041-6.2s-6.00416 2.4-6.00416 6.2 2.50176 6.2 6.00416 6.2c3.5024-.1 6.0041-2.4 6.0041-6.2z"/><path d="m43.7298 29.1999c2.1015 0 3.8027-.8 4.8034-1.9l6.1042 3.5c-2.5018 3.4-6.2043 5.2-11.0076 5.2-8.606 0-14.0097-5.8-14.0097-13.3s5.4037-13.3 13.4093-13.3c7.4051 0 12.8088 5.7 12.8088 13.3 0 1.1-.1001 2.1-.3002 3h-17.9124c1.0007 2.6 3.3023 3.5 6.1042 3.5zm4.6032-9.1c-.8005-2.9-3.1021-4-5.4037-4-2.902 0-4.8033 1.4-5.5038 4z"/><path d="m82.1563 10.1001-9.3064 25.2h-8.606l-9.3064-25.2h8.4058l5.3037 16 5.3036-16z"/><path d="m83.458 10.1001h7.6053v25.2h-7.6053z"/><path d="m93.665 22.6999c0-7.5 5.704-13.3 13.409-13.3 4.904 0 9.207 2.6 11.408 6.5l-6.604 3.8c-.901-1.8-2.702-2.8-4.904-2.8-3.302 0-5.704 2.4-5.704 5.8 0 3.5 2.402 5.8 5.704 5.8 2.202 0 4.103-1.1 4.904-2.8l6.604 3.8c-2.101 3.9-6.404 6.5-11.408 6.5-7.705 0-13.409-5.8-13.409-13.3z"/><path d="m132.892 29.1999c2.101 0 3.803-.8 4.803-1.9l6.104 3.5c-2.501 3.4-6.204 5.2-11.007 5.2-8.606 0-14.01-5.8-14.01-13.3s5.504-13.3 13.409-13.3c7.406 0 12.809 5.7 12.809 13.3 0 1.1-.1 2.1-.3 3h-17.912c1 2.6 3.302 3.5 6.104 3.5zm4.703-9.1c-.8-2.9-3.102-4-5.404-4-2.902 0-4.803 1.4-5.503 4z"/></g><path d="m83.458 0v10.1l7.6053-10.1z" fill="#510094"/></svg>