<svg fill="none" height="55" viewBox="0 0 97 55" width="97" xmlns="http://www.w3.org/2000/svg"><g fill="#363636"><path d="m84.1314 32.639v-12.636c0-1.309 1.045-2.37 2.335-2.37l8.326 1.581v-8.194c0-2.35503-1.708-3.43103-4.202-4.26503l-23.187-6.580002c1.616 1.391002 1.889 2.040002 1.889 4.396002v45.20903c0 2.356-.45 4.066-1.967 5.21l23.265-7.065c2.401-.833 4.202-4.216 4.202-6.572v-7.913l-8.326 1.567c-1.29.002-2.335-1.06-2.335-2.368z"/><path d="m95.1294 20.979-7.598-1.444c-1.008 0-1.824.829-1.824 1.851v9.868c0 1.023.816 1.852 1.824 1.852l7.598-1.431c1.154-.419 1.824-.829 1.824-1.852v-6.993c0-1.022-.766-1.507-1.824-1.851z"/><path d="m67.1704 4.48297c0-5.080003-4.232-4.4590023-4.232-4.4590023s-57.10599 4.7140023-60.09999 5.1210023c-2.993995.407-2.83699542 4.387-2.83699542 4.387s-.001 32.53703-.001 36.28003 2.59899542 3.753 2.59899542 3.753l16.47699 1.403 8.136-11.668s1.109-1.828 2.505-1.828c1.397 0 2.432 1.861 2.432 1.861l9.061 13.521s18.895 1.909 22.521 1.909c3.626-.001 3.439-5.024 3.439-5.024s0-40.17603 0-45.25603zm-54.188 32.70903c-3.69798 0-6.69599-4.601-6.69599-10.275s2.99801-10.275 6.69599-10.275c3.698 0 6.696 4.601 6.696 10.275s-2.998 10.275-6.696 10.275zm36.158 1.426c-4.662 0-8.441-5.239-8.441-11.701 0-6.463 3.78-11.702 8.441-11.702 4.662 0 8.442 5.239 8.442 11.702 0 6.462-3.78 11.701-8.442 11.701z"/></g></svg>