<svg fill="none" height="40" viewBox="0 0 40 40" width="40" xmlns="http://www.w3.org/2000/svg"><circle cx="20" cy="20" fill="#fff" fill-opacity=".3" r="20"/><g fill="#444"><path d="m20 22c1.1046 0 2-.8954 2-2s-.8954-2-2-2-2 .8954-2 2 .8954 2 2 2z"/><path d="m26.7 13.3c-.9-.9-2-1.3-3.4-1.3h-6.6c-2.8 0-4.7 1.9-4.7 4.7v6.6c0 1.4.4 2.6 1.4 3.4.9.9 2 1.3 3.3 1.3h6.6c1.4 0 2.6-.4 3.4-1.3s1.3-2 1.3-3.4v-6.6c0-1.4-.4-2.6-1.3-3.4zm-6.7 10.8c-2.2 0-4.1-1.8-4.1-4.1s1.9-4.1 4.1-4.1 4.1 1.8 4.1 4.1-1.9 4.1-4.1 4.1zm4.6-7.4c-.7 0-1.3-.5-1.3-1.3s.5-1.3 1.3-1.3c.7 0 1.3.6 1.3 1.3s-.6 1.3-1.3 1.3z"/></g></svg>