<svg fill="none" height="32" viewBox="0 0 47 32" width="47" xmlns="http://www.w3.org/2000/svg" xmlns:xlink="http://www.w3.org/1999/xlink"><clipPath id="a"><path d="m0 .356934h47v31h-47z"/></clipPath><g clip-path="url(#a)" fill="#000"><path d="m46.7 15.7569-6.5-8.19997c-.3-.4-.7-.6-1.2-.6h-8.3v-5.1c0-.8-.7-1.499996-1.5-1.499996h-27.7c-.8 0-1.5.699996-1.5 1.499996s.7 1.5 1.5 1.5h26.2v5.1 16.59997h-11.9c-.6-1.9-2.4-3.3-4.5-3.3-2.6 0-4.8 2.2-4.8 4.8s2.2 4.8 4.8 4.8c2.1 0 3.9-1.4 4.5-3.3h13.4c.8 0 1.5-.7 1.5-1.5v-16.59997h7.6l5.7 7.29997v7.9h-2.2c-.6-1.9-2.4-3.3-4.5-3.3-2.6 0-4.8 2.2-4.8 4.8s2.1 4.8 4.8 4.8c2.1 0 3.9-1.4 4.5-3.3h3.7c.8 0 1.5-.7 1.5-1.5v-9.9c0-.4-.1-.7-.3-1zm-35.4 12.6c-1 0-1.8-.8-1.8-1.8s.8-1.8 1.8-1.8 1.8.8 1.8 1.8-.9 1.8-1.8 1.8zm26.1 0c-1 0-1.8-.8-1.8-1.8s.8-1.8 1.8-1.8 1.8.8 1.8 1.8-.9 1.8-1.8 1.8z"/><path d="m19.4 9.95703c.8 0 1.5-.7 1.5-1.5s-.7-1.5-1.5-1.5h-14.59995c-.8 0-1.5.7-1.5 1.5s.7 1.5 1.5 1.5z"/><path d="m17.7 15.0571c0-.8-.7-1.5-1.5-1.5h-14.7c-.8 0-1.5.7-1.5 1.5s.7 1.5 1.5 1.5h14.7c.8 0 1.5-.7 1.5-1.5z"/></g></svg>