<svg fill="none" height="17" viewBox="0 0 16 17" width="16" xmlns="http://www.w3.org/2000/svg" xmlns:xlink="http://www.w3.org/1999/xlink"><clipPath id="a"><path d="m0 .356934h16v16h-16z"/></clipPath><g clip-path="url(#a)"><path d="m15.7 14.6569-3.1-3.1c.9-1.2 1.4-2.59997 1.4-4.19997 0-3.9-3.1-6.999996-7-6.999996s-7 3.099996-7 6.999996c0 3.89997 3.1 6.99997 7 6.99997 1.6 0 3-.5 4.2-1.4l3.1 3.1c.2.2.4.3.7.3.6 0 1-.4 1-1 0-.2-.1-.5-.3-.7zm-13.7-7.29997c0-2.8 2.2-5 5-5s5 2.2 5 5c0 2.79997-2.2 4.99997-5 4.99997s-5-2.2-5-4.99997z" fill="#000"/></g></svg>