<svg fill="none" height="117" viewBox="0 0 87 117" width="87" xmlns="http://www.w3.org/2000/svg"><g fill="#363636"><path d="m82.8211 4.011h-79.49101c-1.761 0-3.188 1.427-3.188 3.188v46.413c0 1.763 1.427 3.189 3.188 3.189h79.49201c1.762 0 3.189-1.427 3.189-3.189v-46.413c0-1.761-1.428-3.188-3.19-3.188zm-74.42901 33.225h-.226c-1.762 0-3.189-1.429-3.189-3.189v-7.283c0-1.761 1.427-3.188 3.189-3.188h.226zm61.23101 15.172h-56.282v-44.006h56.282zm8.777-17.856c-2.289 0-4.146-1.855-4.146-4.147s1.856-4.147 4.146-4.147c2.291 0 4.148 1.855 4.148 4.147s-1.857 4.147-4.148 4.147z"/><path d="m54.6541 0h-23.157v2.758h23.157z"/><path d="m46.6081 64.861v-2.973h8.046v-2.758h-23.156v2.758h8.045v35.246c-2.139.938-3.635 3.072-3.635 5.559v14.307h14.335v-14.307c0-2.486-1.495-4.621-3.636-5.557v-27.99h4.796l5.051 1.213v-6.711l-5.051 1.213z"/></g></svg>